<?xml version="1.0" encoding="UTF-8" standalone="no"?>
<svg
   id="svg2"
   version="1.1"
   viewBox="0 0 51 58.999999"
   sodipodi:docname="switch.svg"
   inkscape:version="1.4.2 (ebf0e940d0, 2025-05-08)"
   width="51"
   height="59"
   xmlns:inkscape="http://www.inkscape.org/namespaces/inkscape"
   xmlns:sodipodi="http://sodipodi.sourceforge.net/DTD/sodipodi-0.dtd"
   xmlns:xlink="http://www.w3.org/1999/xlink"
   xmlns="http://www.w3.org/2000/svg"
   xmlns:svg="http://www.w3.org/2000/svg">
  <defs
     id="defs57">
    <linearGradient
       id="linearGradient9">
      <stop
         style="stop-color:#29d7f5;stop-opacity:1;"
         offset="0"
         id="stop5" />
      <stop
         id="stop6"
         offset="0.0763438"
         style="stop-color:#29d7f5;stop-opacity:1;" />
      <stop
         id="stop7"
         offset="0.13050592"
         style="stop-color:#38c2e9;stop-opacity:0.45614034;" />
      <stop
         style="stop-color:#31a7f2;stop-opacity:0.13157895;"
         offset="0.32798803"
         id="stop8" />
      <stop
         style="stop-color:#2a8dfc;stop-opacity:0;"
         offset="1"
         id="stop9" />
    </linearGradient>
    <radialGradient
       inkscape:collect="always"
       xlink:href="#shadow"
       id="radialGradient1675"
       cx="108"
       cy="111.5"
       fx="108"
       fy="111.5"
       r="11.5"
       gradientUnits="userSpaceOnUse" />
    <linearGradient
       inkscape:collect="always"
       id="shadow">
      <stop
         id="stop0"
         offset="0"
         style="stop-color:#000;stop-opacity:1" />
      <stop
         id="stop1"
         offset="0.7391304374"
         style="stop-color:#000;stop-opacity:.2" />
      <stop
         id="stop2"
         offset="0.8260869384"
         style="stop-color:#000;stop-opacity:.1" />
      <stop
         id="stop3"
         offset="0.8695651889"
         style="stop-color:#000;stop-opacity:.05" />
      <stop
         id="stop4"
         offset="1"
         style="stop-color:#000;stop-opacity:0" />
    </linearGradient>
    <radialGradient
       inkscape:collect="always"
       xlink:href="#linearGradient3610"
       id="radialGradient5"
       gradientUnits="userSpaceOnUse"
       gradientTransform="matrix(-1.4320343e-7,0.8020833,-0.8333333,-1.4878279e-7,179.43537,-25.42999)"
       cx="48.316662"
       cy="105.99999"
       fx="48.316662"
       fy="105.99999"
       r="12" />
    <linearGradient
       id="linearGradient3610">
      <stop
         style="stop-color:#000000;stop-opacity:1;"
         offset="0"
         id="stop3612" />
      <stop
         id="stop3618"
         offset="0.78947371"
         style="stop-color:#000000;stop-opacity:0.49803922;" />
      <stop
         style="stop-color:#000000;stop-opacity:0.33333334;"
         offset="0.84500837"
         id="stop3620" />
      <stop
         id="stop3622"
         offset="0.90754884"
         style="stop-color:#000000;stop-opacity:0.0877193;" />
      <stop
         style="stop-color:#000000;stop-opacity:0;"
         offset="1"
         id="stop3614" />
    </linearGradient>
    <linearGradient
       inkscape:collect="always"
       xlink:href="#linearGradient4157"
       id="linearGradient5"
       gradientUnits="userSpaceOnUse"
       x1="47.999996"
       y1="93.5"
       x2="47.999996"
       y2="121" />
    <linearGradient
       id="linearGradient4157">
      <stop
         style="stop-color:#ffffff;stop-opacity:1;"
         offset="0"
         id="stop4159" />
      <stop
         style="stop-color:#a3a3a3;stop-opacity:1;"
         offset="1"
         id="stop4161" />
    </linearGradient>
    <linearGradient
       id="linearGradient3272">
      <stop
         style="stop-color:white;stop-opacity:1;"
         offset="0"
         id="stop3274" />
      <stop
         style="stop-color:white;stop-opacity:0;"
         offset="1"
         id="stop3276" />
    </linearGradient>
    <radialGradient
       inkscape:collect="always"
       xlink:href="#linearGradient4254"
       id="radialGradient2458"
       gradientUnits="userSpaceOnUse"
       gradientTransform="matrix(0.8571429,0,0,0.8571429,8.652619,61.101421)"
       cx="74"
       cy="34"
       fx="74"
       fy="34"
       r="14" />
    <linearGradient
       id="linearGradient4254">
      <stop
         style="stop-color:#29d7f5;stop-opacity:1;"
         offset="0"
         id="stop4256" />
      <stop
         id="stop4272"
         offset="0.6937564"
         style="stop-color:#29d7f5;stop-opacity:1;" />
      <stop
         id="stop4270"
         offset="0.77537483"
         style="stop-color:#38c2e9;stop-opacity:0.45614034;" />
      <stop
         style="stop-color:#31a7f2;stop-opacity:0.13157895;"
         offset="0.88768744"
         id="stop3222" />
      <stop
         style="stop-color:#2a8dfc;stop-opacity:0;"
         offset="1"
         id="stop4258" />
    </linearGradient>
    <radialGradient
       inkscape:collect="always"
       xlink:href="#linearGradient4254"
       id="radialGradient2456-2"
       gradientUnits="userSpaceOnUse"
       gradientTransform="matrix(0.8571429,0,0,0.8571429,8.5086094,61.560583)"
       cx="74"
       cy="34"
       fx="74"
       fy="34"
       r="14" />
    <linearGradient
       inkscape:collect="always"
       xlink:href="#linearGradient4157"
       id="linearGradient5-6"
       gradientUnits="userSpaceOnUse"
       x1="47.999996"
       y1="93.5"
       x2="47.999996"
       y2="121"
       gradientTransform="matrix(0.6666667,0,0,0.8,24.999998,-39.8)" />
    <radialGradient
       inkscape:collect="always"
       xlink:href="#linearGradient3610"
       id="radialGradient5-2"
       gradientUnits="userSpaceOnUse"
       gradientTransform="matrix(-1.4320343e-7,0.8020833,-0.8333333,-1.4878279e-7,145.33333,6.621028)"
       cx="48.316662"
       cy="105.99999"
       fx="48.316662"
       fy="105.99999"
       r="12" />
    <linearGradient
       inkscape:collect="always"
       xlink:href="#linearGradient3272"
       id="linearGradient1"
       gradientUnits="userSpaceOnUse"
       gradientTransform="matrix(0.6666667,0,0,0.8,24.999998,-39.8)"
       x1="48"
       y1="96"
       x2="48"
       y2="118.5" />
    <radialGradient
       inkscape:collect="always"
       xlink:href="#linearGradient3610"
       id="radialGradient5-2-2"
       gradientUnits="userSpaceOnUse"
       gradientTransform="matrix(-1.4320343e-7,0.8020833,-0.8333333,-1.4878279e-7,160.49669,51.610218)"
       cx="48.316662"
       cy="105.99999"
       fx="48.316662"
       fy="105.99999"
       r="12" />
    <linearGradient
       inkscape:collect="always"
       xlink:href="#linearGradient4157"
       id="linearGradient2"
       gradientUnits="userSpaceOnUse"
       gradientTransform="matrix(0.6666667,0,0,0.8,40.163356,5.1891903)"
       x1="47.999996"
       y1="93.5"
       x2="47.999996"
       y2="121" />
    <linearGradient
       inkscape:collect="always"
       xlink:href="#linearGradient3272"
       id="linearGradient3"
       gradientUnits="userSpaceOnUse"
       gradientTransform="matrix(0.6666667,0,0,0.8,40.163356,5.1891903)"
       x1="48"
       y1="96"
       x2="48"
       y2="118.5" />
    <radialGradient
       inkscape:collect="always"
       xlink:href="#linearGradient9"
       id="radialGradient2458-1"
       gradientUnits="userSpaceOnUse"
       gradientTransform="matrix(0.8571429,0,0,0.8571429,27.857698,-16.040816)"
       cx="74"
       cy="34"
       fx="74"
       fy="34"
       r="14" />
  </defs>
  <sodipodi:namedview
     id="namedview55"
     pagecolor="#ffffff"
     bordercolor="#000000"
     borderopacity="0.25"
     inkscape:showpageshadow="2"
     inkscape:pageopacity="0.0"
     inkscape:pagecheckerboard="0"
     inkscape:deskcolor="#d1d1d1"
     showgrid="true"
     inkscape:zoom="19.60099"
     inkscape:cx="21.555034"
     inkscape:cy="20.534677"
     inkscape:window-width="1876"
     inkscape:window-height="1200"
     inkscape:window-x="0"
     inkscape:window-y="0"
     inkscape:window-maximized="1"
     inkscape:current-layer="svg2"
     showguides="true">
    <inkscape:grid
       type="xygrid"
       id="grid286"
       originx="0"
       originy="9.9999996e-08"
       spacingy="1"
       spacingx="1"
       units="px"
       visible="true" />
    <sodipodi:guide
       position="0,11"
       orientation="0,-1"
       id="guide663"
       inkscape:locked="false" />
    <sodipodi:guide
       position="11,22"
       orientation="1,0"
       id="guide665"
       inkscape:locked="false" />
    <sodipodi:guide
       position="11,23"
       orientation="0,-1"
       id="guide4433"
       inkscape:locked="false" />
    <sodipodi:guide
       position="45,-9.9999999"
       orientation="1,0"
       id="guide826"
       inkscape:locked="false" />
    <sodipodi:guide
       position="56,-21"
       orientation="0,-1"
       id="guide828"
       inkscape:locked="false" />
  </sodipodi:namedview>
  <style
     id="current-color-scheme"
     type="text/css">.ColorScheme-Text {
            color:#232629;
            stop-color:#232629;
        }
        .ColorScheme-Background {
            color:#eff0f1;
            stop-color:#eff0f1;
        }
        .ColorScheme-Highlight {
            color:#3daee9;
            stop-color:#3daee9;
        }
        .ColorScheme-ButtonText {
            color:#232629;
            stop-color:#232629;
        }
        .ColorScheme-ButtonBackground {
            color:#eff0f1;
            stop-color:#eff0f1;
        }</style>
  <rect
     id="hint-stretch-borders"
     y="7.0100002"
     width="2.0613225"
     height="4"
     fill="#ff2a2a"
     x="0"
     style="stroke-width:0.717865" />
  <g
     id="active-left">
    <g
       transform="matrix(0.53333333,0,0,0.53333333,14,-15.99)"
       id="g1088">
      <path
         id="path3239"
         fill="currentColor"
         class="ColorScheme-ButtonBackground"
         d="M 30,45 C 30,36.628883 36.606391,30 45,30 V 45" />
      <path
         id="path2278"
         fill="currentColor"
         class="ColorScheme-Highlight"
         d="M 30,45 C 30,36.628883 36.606391,30 45,30 V 45"
         opacity="0.50" />
      <path
         id="path2040"
         fill="currentColor"
         class="ColorScheme-Highlight"
         d="m 30,45 c 0,-8.371117 6.606391,-15 15,-15 v 1 c -7.750845,0 -14,6.202439 -14,14" />
    </g>
    <g
       transform="matrix(0.53333333,0,0,-0.53333333,14,32)"
       id="g1092">
      <path
         id="path3154"
         fill="currentColor"
         class="ColorScheme-ButtonBackground"
         d="M 30,45 C 30,36.628883 36.606391,30 45,30 V 45" />
      <path
         id="path2289"
         fill="currentColor"
         class="ColorScheme-Highlight"
         d="M 30,45 C 30,36.628883 36.606391,30 45,30 V 45"
         opacity="0.50" />
      <path
         id="path2291"
         fill="currentColor"
         class="ColorScheme-Highlight"
         d="m 30,45 c 0,-8.371117 6.606391,-15 15,-15 v 1 c -7.750845,0 -14,6.202439 -14,14" />
    </g>
  </g>
  <g
     id="active-right">
    <g
       transform="matrix(0,0.53333333,-0.53333333,0,67,-15.99)"
       id="g1097">
      <path
         id="path2987"
         fill="currentColor"
         class="ColorScheme-ButtonBackground"
         d="M 30,45 C 30,36.628883 36.606391,30 45,30 V 45" />
      <path
         id="path2283"
         fill="currentColor"
         class="ColorScheme-Highlight"
         d="M 30,45 C 30,36.628883 36.606391,30 45,30 V 45"
         opacity="0.50" />
      <path
         id="path2285"
         fill="currentColor"
         class="ColorScheme-Highlight"
         d="m 30,45 c 0,-8.371117 6.606391,-15 15,-15 v 1 c -7.750845,0 -14,6.202439 -14,14" />
    </g>
    <g
       transform="matrix(0,-0.53333333,-0.53333333,0,67,32)"
       id="g1101">
      <path
         id="path3070"
         fill="currentColor"
         class="ColorScheme-ButtonBackground"
         d="M 30,45 C 30,36.628883 36.606391,30 45,30 V 45" />
      <path
         id="path2295"
         fill="currentColor"
         class="ColorScheme-Highlight"
         d="M 30,45 C 30,36.628883 36.606391,30 45,30 V 45"
         opacity="0.50" />
      <path
         id="path2297"
         fill="currentColor"
         class="ColorScheme-Highlight"
         d="m 30,45 c 0,-8.371117 6.606391,-15 15,-15 v 1 c -7.750845,0 -14,6.202439 -14,14" />
    </g>
  </g>
  <g
     id="active-center">
    <g
       transform="matrix(1,0,0,0.53333333,-15,-15.99)"
       id="g1106">
      <path
         id="path2824"
         class="ColorScheme-ButtonBackground"
         d="m 53,30 h 5 v 15 h -5 z"
         style="fill:currentColor" />
      <path
         id="path2453"
         class="ColorScheme-Highlight"
         d="m 53,30 h 5 v 15 h -5 z"
         style="fill:currentColor;fill-rule:evenodd;opacity:.50" />
      <path
         fill="currentColor"
         id="path2455"
         class="ColorScheme-Highlight"
         d="m 53,31 h 5 v -1 h -5 z" />
    </g>
    <g
       transform="matrix(1,0,0,-0.53333333,-15,32)"
       id="g1110">
      <path
         id="path2905"
         class="ColorScheme-ButtonBackground"
         d="m 53,30 h 5 v 15 h -5 z"
         style="fill:currentColor;fill-rule:evenodd;" />
      <path
         id="path2644"
         class="ColorScheme-Highlight"
         d="m 53,30 h 5 v 15 h -5 z"
         style="fill:currentColor;fill-rule:evenodd;opacity:.50" />
      <path
         fill="currentColor"
         id="path2646"
         class="ColorScheme-Highlight"
         d="m 53,31 h 5 v -1 h -5 z" />
    </g>
  </g>
  <g
     id="inactive-left">
    <g
       transform="matrix(0.53333333,0,0,0.53333333,-10,-16)"
       id="g1115">
      <path
         fill="currentColor"
         id="path3759"
         class="ColorScheme-ButtonText"
         d="M 30,45 C 30,36.628883 36.606391,30 45,30 V 45"
         fill-opacity="0.09" />
      <path
         fill="currentColor"
         id="path3761"
         class="ColorScheme-ButtonText"
         d="m 30,45 c 0,-8.371117 6.606391,-15 15,-15 v 1 c -7.750845,0 -14,6.202439 -14,14"
         fill-opacity="0.24" />
    </g>
    <g
       transform="matrix(0.53333333,0,0,-0.53333333,-9.9999999,32)"
       id="g1119">
      <path
         fill="currentColor"
         id="path3771"
         class="ColorScheme-ButtonText"
         d="M 30,45 C 30,36.628883 36.606391,30 45,30 V 45"
         fill-opacity="0.09" />
      <path
         fill="currentColor"
         id="path3773"
         class="ColorScheme-ButtonText"
         d="m 30,45 c 0,-8.371117 6.606391,-15 15,-15 v 1 c -7.750845,0 -14,6.202439 -14,14"
         fill-opacity="0.24" />
    </g>
  </g>
  <g
     id="inactive-right">
    <g
       transform="matrix(0,0.53333333,-0.53333333,0,43,-16)"
       id="g1124">
      <path
         fill="currentColor"
         id="path3765"
         class="ColorScheme-ButtonText"
         d="M 30,45 C 30,36.628883 36.606391,30 45,30 V 45"
         fill-opacity="0.09" />
      <path
         fill="currentColor"
         id="path3767"
         class="ColorScheme-ButtonText"
         d="m 30,45 c 0,-8.371117 6.606391,-15 15,-15 v 1 c -7.750845,0 -14,6.202439 -14,14"
         fill-opacity="0.24" />
    </g>
    <g
       transform="matrix(0,-0.53333333,-0.53333333,0,43,32)"
       id="g1128">
      <path
         fill="currentColor"
         id="path3777"
         class="ColorScheme-ButtonText"
         d="M 30,45 C 30,36.628883 36.606391,30 45,30 V 45"
         fill-opacity="0.09" />
      <path
         fill="currentColor"
         id="path3779"
         class="ColorScheme-ButtonText"
         d="m 30,45 c 0,-8.371117 6.606391,-15 15,-15 v 1 c -7.750845,0 -14,6.202439 -14,14"
         fill-opacity="0.24" />
    </g>
  </g>
  <rect
     style="fill:#0000ff;stroke-width:145.989;stroke-linecap:round"
     id="hint-bar-size"
     width="38"
     height="16"
     x="7"
     y="18" />
  <g
     id="inactive-center">
    <g
       transform="matrix(1,0,0,0.53333333,-39,-16)"
       id="g1133">
      <path
         id="path3783"
         class="ColorScheme-ButtonText"
         d="m 53,30 h 5 v 15 h -5 z"
         fill-opacity="0.09"
         fill="currentColor" />
      <path
         fill="currentColor"
         id="path1207"
         class="ColorScheme-ButtonText"
         d="m 53,31 h 5 v -1 h -5 z"
         fill-opacity="0.24" />
    </g>
    <g
       transform="matrix(1,0,0,-0.53333333,-39,32)"
       id="g1137">
      <path
         fill="currentColor"
         id="path3789"
         class="ColorScheme-ButtonText"
         d="m 53,30 h 5 v 15 h -5 z"
         fill-opacity="0.09" />
      <path
         fill="currentColor"
         id="path3791"
         class="ColorScheme-ButtonText"
         d="m 53,31 h 5 v -1 h -5 z"
         fill-opacity="0.24" />
    </g>
  </g>
  <g
     id="handle"
     transform="translate(-78.805476,33.295297)">
    <ellipse
       style="fill:url(#radialGradient2458-1);fill-opacity:1;stroke:none;stroke-width:17.1429;stroke-linejoin:round;stroke-miterlimit:4;stroke-dasharray:none;stroke-dashoffset:0;stroke-opacity:1"
       id="horizontal-slider-hover-0"
       cx="91.286247"
       cy="13.102041"
       inkscape:label="recthandlehover"
       transform="translate(-0.204071)"
       rx="12"
       ry="12.000001" />
    <circle
       style="opacity:1;fill:url(#radialGradient5);fill-opacity:1;stroke:none;stroke-width:0.912871;stroke-linejoin:round;stroke-miterlimit:4;stroke-dasharray:none;stroke-dashoffset:0;stroke-opacity:1"
       id="path3606-3"
       cx="91.102036"
       cy="12.948982"
       r="10" />
    <ellipse
       transform="matrix(0.6666667,0,0,0.8,58.999998,-71.8)"
       id="path2826-6"
       style="opacity:1;fill:url(#linearGradient5);fill-opacity:1;stroke:none;stroke-width:1;stroke-linejoin:round;stroke-miterlimit:4;stroke-dasharray:none;stroke-dashoffset:0;stroke-opacity:1"
       cx="48"
       cy="106"
       rx="12"
       ry="10" />
  </g>
  <g
     transform="translate(-0.6137292,-18.29555)"
     id="handle-focus">
    <circle
       style="fill:url(#radialGradient5-2);fill-opacity:1;stroke:none;stroke-width:0.912871;stroke-linejoin:round;stroke-miterlimit:4;stroke-dasharray:none;stroke-dashoffset:0;stroke-opacity:1"
       id="path3606-3-0"
       cx="57"
       cy="45"
       r="10" />
    <circle
       id="path2826-6-2"
       style="fill:url(#linearGradient5-6);fill-opacity:1;stroke:none;stroke-width:0.730297;stroke-linejoin:round;stroke-miterlimit:4;stroke-dasharray:none;stroke-dashoffset:0;stroke-opacity:1"
       cx="57"
       cy="45"
       r="8" />
    <path
       style="fill:url(#linearGradient1);fill-opacity:1;stroke:none;stroke-width:1;stroke-linejoin:round;stroke-miterlimit:4;stroke-dasharray:none;stroke-dashoffset:0;stroke-opacity:1"
       d="m 56.999999,37 c -4.416,0 -8,3.584 -8,8 0,4.416 3.584,8 8,8 4.416,0 8.000001,-3.584 8,-8 0,-4.416 -3.583999,-8 -8,-8 z m 0,1 c 3.864,0 7,3.136 7,7 0,3.864 -3.136,7 -7,7 -3.864001,0 -7,-3.136 -7,-7 -2e-6,-3.864 3.136,-7 7,-7 z"
       id="path3220-7-3"
       inkscape:label="path3220-7" />
  </g>
  <g
     id="handle-shadow"
     transform="matrix(1.0769231,0,0,1.0769231,-31.923079,-71.076926)">
    <rect
       id="rect3114-3-3"
       height="26"
       style="opacity:0.00100002;fill:#000000;fill-opacity:0.00392157"
       width="26"
       x="95"
       y="97" />
    <circle
       style="fill:url(#radialGradient1675);fill-opacity:1;fill-rule:evenodd"
       id="path1195-6"
       cx="108"
       cy="111.5"
       r="11.5" />
  </g>
  <g
     id="handle-hover"
     transform="translate(-38,-44)">
    <circle
       style="fill:url(#radialGradient2458);fill-opacity:1;stroke:none;stroke-width:17.1429;stroke-linejoin:round;stroke-miterlimit:4;stroke-dasharray:none;stroke-dashoffset:0;stroke-opacity:1"
       id="horizontal-slider-hover"
       cx="72.081177"
       cy="90.244278"
       r="12.000001"
       inkscape:label="recthandlehover" />
    <circle
       style="fill:url(#radialGradient5-2-2);fill-opacity:1;stroke:none;stroke-width:0.912871;stroke-linejoin:round;stroke-miterlimit:4;stroke-dasharray:none;stroke-dashoffset:0;stroke-opacity:1"
       id="path3606-3-0-2"
       cx="72.163361"
       cy="89.989189"
       r="10" />
    <circle
       id="path2826-6-2-9"
       style="fill:url(#linearGradient2);fill-opacity:1;stroke:none;stroke-width:0.730297;stroke-linejoin:round;stroke-miterlimit:4;stroke-dasharray:none;stroke-dashoffset:0;stroke-opacity:1"
       cx="72.163361"
       cy="89.989189"
       r="8" />
    <path
       style="fill:url(#linearGradient3);fill-opacity:1;stroke:none;stroke-width:1;stroke-linejoin:round;stroke-miterlimit:4;stroke-dasharray:none;stroke-dashoffset:0;stroke-opacity:1"
       d="m 72.163357,81.98919 c -4.416,0 -8,3.584 -8,8 0,4.416 3.584,8 8,8 4.416,0 8.000001,-3.584 8,-8 0,-4.416 -3.583999,-8 -8,-8 z m 0,1 c 3.864,0 7,3.136 7,7 0,3.864 -3.136,7 -7,7 -3.864001,0 -7,-3.136 -7,-7 -2e-6,-3.864 3.136,-7 7,-7 z"
       id="path3220-7-3-3"
       inkscape:label="path3220-7" />
  </g>
  <g
     id="handle-pressed"
     transform="translate(-15,-44)">
    <circle
       id="horizontal-slider-focus-2"
       style="opacity:0.8;fill:url(#radialGradient2456-2);fill-opacity:1;stroke:none;stroke-width:17.1429;stroke-linejoin:round;stroke-miterlimit:4;stroke-dasharray:none;stroke-dashoffset:0;stroke-opacity:1"
       cx="71.937164"
       cy="90.703438"
       r="12.000001"
       inkscape:label="recthandlepressed" />
  </g>
</svg>
